/* XPM */
static char * expression_xpm[] = {
"16 16 2 1",
" 	c None",
".	c #00DD00",
"                ",
"                ",
"                ",
"      .....     ",
"     ..   ..    ",
"    ..     ..   ",
"    ..     ..   ",
"    .........   ",
"    ..          ",
"    ..          ",
"     ..     .   ",
"       .....    ",
"                ",
"                ",
"                ",
"                "};
